HIERARCHY
ROOT hip
{
  OFFSET 0 0 0
  CHANNELS 6 Xposition Yposition Zposition Zrotation Yrotation Xrotation
  JOINT abdomen
  {
    OFFSET 0 20.6881 -0.73152
    CHANNELS 3 Zrotation Xrotation Yrotation
    JOINT chest
    {
      OFFSET 0 11.7043 -0.48768
      CHANNELS 3 Zrotation Xrotation Yrotation
      JOINT neck
      {
        OFFSET 0 22.1894 -2.19456
        CHANNELS 3 Zrotation Xrotation Yrotation
        JOINT head
        {
          OFFSET -0.24384 7.07133 1.2192
          CHANNELS 3 Zrotation Xrotation Yrotation
          JOINT leftEye
          {
            OFFSET 4.14528 8.04674 8.04672
            CHANNELS 3 Zrotation Xrotation Yrotation
            End Site
            {
              OFFSET 1 0 0
            }
          }
          JOINT rightEye
          {
            OFFSET -3.6576 8.04674 8.04672
            CHANNELS 3 Zrotation Xrotation Yrotation
            End Site
            {
              OFFSET 1 0 0
            }
          }
        }
      }
      JOINT rCollar
      {
        OFFSET -2.68224 19.2634 -4.8768
        CHANNELS 3 Zrotation Xrotation Yrotation
        JOINT rShldr
        {
          OFFSET -8.77824 -1.95073 1.46304
          CHANNELS 3 Zrotation Xrotation Yrotation
          JOINT rForeArm
          {
            OFFSET -28.1742 -1.7115 0.48768
            CHANNELS 3 Zrotation Xrotation Yrotation
            JOINT rHand
            {
              OFFSET -22.5879 0.773209 7.07136
              CHANNELS 3 Zrotation Xrotation Yrotation
              JOINT rThumb1
              {
                OFFSET -1.2192 -0.487915 3.41376
                CHANNELS 3 Zrotation Xrotation Yrotation
                JOINT rThumb2
                {
                  OFFSET -3.37035 -0.52449 3.41376
                  CHANNELS 3 Zrotation Xrotation Yrotation
                  End Site
                  {
                    OFFSET -1.78271 -1.18214 1.43049
                  }
                }
              }
              JOINT rIndex1
              {
                OFFSET -7.75947 0.938293 5.60832
                CHANNELS 3 Zrotation Xrotation Yrotation
                JOINT rIndex2
                {
                  OFFSET -2.54057 -0.884171 1.56538
                  CHANNELS 3 Zrotation Xrotation Yrotation
                  End Site
                  {
                    OFFSET -1.62519 -0.234802 1.16502
                  }
                }
              }
              JOINT rMid1
              {
                OFFSET -8.24714 1.18213 3.41376
                CHANNELS 3 Zrotation Xrotation Yrotation
                JOINT rMid2
                {
                  OFFSET -3.10165 -0.590103 1.0647
                  CHANNELS 3 Zrotation Xrotation Yrotation
                  End Site
                  {
                    OFFSET -2.48547 -0.328903 0.83742
                  }
                }
              }
              JOINT rRing1
              {
                OFFSET -8.82822 0.546677 1.51678
                CHANNELS 3 Zrotation Xrotation Yrotation
                JOINT rRing2
                {
                  OFFSET -2.60934 -0.819778 -0.0198488
                  CHANNELS 3 Zrotation Xrotation Yrotation
                  End Site
                  {
                    OFFSET -2.33842 -0.294052 0.168128
                  }
                }
              }
              JOINT rPinky1
              {
                OFFSET -8.27202 -0.0477905 -0.4584
                CHANNELS 3 Zrotation Xrotation Yrotation
                JOINT rPinky2
                {
                  OFFSET -1.82734 -0.647385 -0.700984
                  CHANNELS 3 Zrotation Xrotation Yrotation
                  End Site
                  {
                    OFFSET -1.69225 -0.51767 -0.607171
                  }
                }
              }
            }
          }
        }
      }
      JOINT lCollar
      {
        OFFSET 2.68224 19.2634 -4.8768
        CHANNELS 3 Zrotation Xrotation Yrotation
        JOINT lShldr
        {
          OFFSET 8.77824 -1.95073 1.46304
          CHANNELS 3 Zrotation Xrotation Yrotation
          JOINT lForeArm
          {
            OFFSET 28.1742 -1.7115 0.48768
            CHANNELS 3 Zrotation Xrotation Yrotation
            JOINT lHand
            {
              OFFSET 22.5879 0.773209 7.07136
              CHANNELS 3 Zrotation Xrotation Yrotation
              JOINT lThumb1
              {
                OFFSET 1.2192 -0.487915 3.41376
                CHANNELS 3 Zrotation Xrotation Yrotation
                JOINT lThumb2
                {
                  OFFSET 3.37035 -0.52449 3.41376
                  CHANNELS 3 Zrotation Xrotation Yrotation
                  End Site
                  {
                    OFFSET 1.78271 -1.18214 1.43049
                  }
                }
              }
              JOINT lIndex1
              {
                OFFSET 7.75947 0.938293 5.60832
                CHANNELS 3 Zrotation Xrotation Yrotation
                JOINT lIndex2
                {
                  OFFSET 2.54057 -0.884171 1.56538
                  CHANNELS 3 Zrotation Xrotation Yrotation
                  End Site
                  {
                    OFFSET 1.62519 -0.234802 1.16502
                  }
                }
              }
              JOINT lMid1
              {
                OFFSET 8.24714 1.18213 3.41376
                CHANNELS 3 Zrotation Xrotation Yrotation
                JOINT lMid2
                {
                  OFFSET 3.10165 -0.590103 1.0647
                  CHANNELS 3 Zrotation Xrotation Yrotation
                  End Site
                  {
                    OFFSET 2.48547 -0.328903 0.83742
                  }
                }
              }
              JOINT lRing1
              {
                OFFSET 8.82822 0.546677 1.51678
                CHANNELS 3 Zrotation Xrotation Yrotation
                JOINT lRing2
                {
                  OFFSET 2.60934 -0.819778 -0.0198488
                  CHANNELS 3 Zrotation Xrotation Yrotation
                  End Site
                  {
                    OFFSET 2.33842 -0.294052 0.168128
                  }
                }
              }
              JOINT lPinky1
              {
                OFFSET 8.27202 -0.0477905 -0.4584
                CHANNELS 3 Zrotation Xrotation Yrotation
                JOINT lPinky2
                {
                  OFFSET 1.82734 -0.647385 -0.700984
                  CHANNELS 3 Zrotation Xrotation Yrotation
                  End Site
                  {
                    OFFSET 1.69225 -0.51767 -0.607171
                  }
                }
              }
            }
          }
        }
      }
    }
  }
  JOINT rButtock
  {
    OFFSET -8.77824 4.35084 1.2192
    CHANNELS 3 Zrotation Xrotation Yrotation
    JOINT rThigh
    {
      OFFSET 0 -1.70687 -2.19456
      CHANNELS 3 Zrotation Xrotation Yrotation
      JOINT rShin
      {
        OFFSET 0 -36.8199 0.73152
        CHANNELS 3 Zrotation Xrotation Yrotation
        JOINT rFoot
        {
          OFFSET 0.73152 -45.1104 -5.12064
          CHANNELS 3 Zrotation Xrotation Yrotation
          End Site
          {
            OFFSET -1.1221 -3.69964 12.103
          }
        }
      }
    }
  }
  JOINT lButtock
  {
    OFFSET 8.77824 4.35084 1.2192
    CHANNELS 3 Zrotation Xrotation Yrotation
    JOINT lThigh
    {
      OFFSET 0 -1.70687 -2.19456
      CHANNELS 3 Zrotation Xrotation Yrotation
      JOINT lShin
      {
        OFFSET 0 -36.8199 0.73152
        CHANNELS 3 Zrotation Xrotation Yrotation
        JOINT lFoot
        {
          OFFSET -0.73152 -45.1104 -5.12064
          CHANNELS 3 Zrotation Xrotation Yrotation
          End Site
          {
            OFFSET 1.1221 -3.69964 12.103
          }
        }
      }
    }
  }
}
MOTION
Frames:	4
Frame Time:	0.03333
1.7950504943728447 69.0721435546875 9.05098369717598 0.057845860719680786 3.323652595281601 33.666459918022156 -0.23690778762102127 22.97204464673996 -8.514604791998863 8.25226865708828 -11.922567933797836 -2.5058998726308346 -7.547856867313385 24.937334060668945 -3.5129427909851074 9.032890051603317 -19.010442048311234 -6.128677278757095 6.249770298600197 0.9182259254157543 -5.5235568434000015 1.1721159517765045 5.226612500846386 1.5655926614999771 1.5337984263896942 6.156118959188461 -6.494632512331009 55.73123395442963 29.140784740447998 21.956879496574402 -26.513957977294922 -28.45717281103134 68.58735680580139 -13.119647204875946 -3.4517495334148407 -4.4055430591106415 4.995247162878513 4.2413898557424545 3.516695871949196 -5.184064619243145 5.095475614070892 -2.018282152712345 1.235404685139656 -8.98950532078743 4.460694640874863 4.69525583088398 -0.262448787689209 -1.4886474609375 6.534513607621193 5.495423823595047 -5.819982513785362 -5.40782555937767 -2.239970415830612 2.280403543263674 4.5996468141674995 3.0802562087774277 -1.6763994097709656 4.350009262561798 2.8240687027573586 -0.8289316669106483 6.659493148326874 1.404825747013092 2.523488625884056 3.829708993434906 -2.309488244354725 3.9311930537223816 1.2196560949087143 2.8096290305256844 -0.28703217627480626 -49.458577036857605 35.68704307079315 -40.87796777486801 30.078763961791992 -38.33576738834381 -72.9520833492279 5.276331938803196 -6.094886139035225 6.400822252035141 -5.6242405995726585 0.24169787764549255 -2.5086717680096626 -0.4212496429681778 -1.8489019945263863 -4.35577467083931 0.5244724452495575 2.6451408863067627 -1.7744579538702965 -3.945334330201149 3.341461792588234 -0.588598195463419 4.632107578217983 12.42720678448677 -2.4972760677337646 -6.566145569086075 -2.3690352961421013 3.3894501999020576 -1.5314136072993279 7.629715874791145 5.572862550616264 -16.457003206014633 -4.377196468412876 6.506001725792885 1.096198707818985 -2.7550430595874786 8.470499888062477 -5.890166535973549 -0.7831339538097382 3.7969813495874405 -7.983013093471527 4.2524465918540955 2.0458804070949554 -33.12345206737518 -36.27652555704117 -34.03722167015076 0.8934595808386803 55.90964376926422 6.627924889326096 -13.593770563602448 -12.882350832223892 -2.5581565126776695 5.955454185605049 -2.9596956074237823 -1.0170986875891685 52.62180268764496 -36.61492645740509 42.76344537734985 13.285804688930511 59.7044438123703 -14.338445663452148 14.845966547727585 -3.8572707027196884 3.5015246272087097
1.83101187646389 68.9191665649414 9.129720896482468 -0.7101000845432281 3.196263760328293 33.20517361164093 -0.5152969434857368 22.951981723308563 -8.224338814616203 8.633904084563255 -12.049648314714432 -2.5127743743360043 -7.506465017795563 24.747133255004883 -3.413701057434082 9.016909450292587 -19.0489961206913 -5.989910513162613 6.250549480319023 1.2258055619895458 -5.694300904870033 1.2487412989139557 5.057367794215679 1.5318933874368668 1.462092250585556 6.114525943994522 -6.337197571992874 56.035857796669006 29.09028947353363 21.801346242427826 -26.43983244895935 -28.525998294353485 68.67921710014343 -13.107781112194061 -3.462108224630356 -4.267366379499435 5.172895230352879 4.318503364920616 3.5963547974824905 -5.400497429072857 4.995080530643463 -2.270216681063175 1.2509400397539139 -8.905949145555496 4.537684768438339 4.95442159473896 -0.1947873830795288 -1.6460394859313965 6.86392106115818 5.409351736307144 -5.836376175284386 -5.2003030478954315 -2.1560387313365936 2.52481447532773 4.456470496952534 3.217177614569664 -1.7817726731300354 4.66755598783493 2.8493565693497658 -0.751987136900425 6.582449376583099 1.6578492522239685 2.2997870296239853 3.7381920218467712 -2.1447576954960823 3.980470597743988 1.1482905596494675 2.86541897803545 -0.24971728445962071 -49.606860280036926 35.72628915309906 -40.661170184612274 30.128872990608215 -37.94973850250244 -72.63278245925903 5.1153430715203285 -6.03008933365345 6.481647938489914 -5.409395657479763 0.2772746980190277 -2.641698606312275 -0.32708264887332916 -1.7680924013257027 -4.414638429880142 0.8866779506206512 2.3505860567092896 -1.785379908978939 -4.315253868699074 3.5951022058725357 -0.45633310452103615 4.829260669648647 12.667870670557022 -2.3603010177612305 -6.514979749917984 -2.341676764190197 3.065619058907032 -1.596677117049694 7.541382685303688 5.3952037543058395 -16.586575359106064 -4.438519813120365 6.558626666665077 0.9955206513404846 -2.9243387281894684 8.03439550101757 -6.022056117653847 -0.7648305594921112 3.7422964721918106 -7.896034419536591 4.533713757991791 1.6279949247837067 -33.26492249965668 -36.67606472969055 -34.50181245803833 1.170220635831356 56.09494149684906 6.273316740989685 -13.979418575763702 -12.841034084558487 -2.618645690381527 5.842897966504097 -3.1756670773029327 -1.4079394564032555 52.72856533527374 -36.77797257900238 42.44770646095276 12.797358334064484 60.137545466423035 -14.036805778741837 14.652139395475388 -3.6465617269277573 3.9040598273277283
1.8693624511361122 69.46730041503906 9.221596121788025 -1.3437773287296295 2.499839086085558 31.511149406433105 -1.2135027721524239 23.645043075084686 -7.762510702013969 8.878532275557518 -11.967763155698776 -2.5987874530255795 -7.4276939034461975 24.43586826324463 -3.4747695922851562 8.768531531095505 -19.17210415005684 -6.3126446306705475 6.007321402430534 0.729819517582655 -5.639219060540199 1.726088672876358 5.133969001471996 1.1559013277292252 1.7589698731899261 6.0547395050525665 -6.129701882600784 54.98289227485657 29.199106693267822 22.12101459503174 -26.53848946094513 -28.94836038351059 67.95713424682617 -12.599829733371735 -3.932960629463196 -3.7169770896434784 4.599213637411594 4.683293178677559 3.2882574945688248 -5.71975439786911 4.678534269332886 -2.4060652032494545 1.5615291148424149 -8.706682473421097 4.376559108495712 4.652206376194954 -0.3460264205932617 -1.6294795274734497 6.301901713013649 5.226623564958572 -6.204844638705254 -5.340314358472824 -2.044466882944107 2.800529468804598 3.8068877533078194 3.328465148806572 -1.3580694794654846 4.738849103450775 2.9964596405625343 -0.2238655462861061 6.595527827739716 1.7228364944458008 2.437926158308983 3.5182374715805054 -2.0295943692326546 4.14521723985672 0.9910031408071518 2.869560308754444 -0.6433528941124678 -48.35659682750702 34.97670829296112 -40.706853568553925 30.011719465255737 -37.707476019859314 -72.72746443748474 4.110327400267124 -6.004195287823677 5.979050248861313 -5.109240375459194 0.5167745053768158 -2.847944386303425 -0.48649169504642487 -2.7305172756314278 -4.203913360834122 1.1056427657604218 1.8435412645339966 -1.451874040067196 -4.179378524422646 3.9047954231500626 -0.41582101956009865 4.166293703019619 12.615299373865128 -2.284255027770996 -6.462301164865494 -2.586219124495983 3.587225563824177 -0.9926596563309431 7.318212166428566 5.41817419230938 -16.257275193929672 -4.392932988703251 6.67003758251667 1.291416585445404 -2.98122838139534 8.135046735405922 -6.159235015511513 -0.5887757241725922 3.5596755892038345 -7.252170145511627 4.491066634654999 1.6666026413440704 -33.598095774650574 -36.57652258872986 -34.946662187576294 -0.6606552377343178 55.555205941200256 7.724244296550751 -14.262241423130035 -13.834889084100723 -3.1258943304419518 5.728582218289375 -3.34253266453743 -1.8610289320349693 51.99485242366791 -36.574360728263855 42.35785782337189 14.35533955693245 59.56579506397247 -14.665673822164536 14.605485051870346 -3.3867736905813217 4.349896609783173
1.9074805602431297 69.62849426269531 9.31762681901455 -0.9111665189266205 2.382063288241625 31.280189752578735 -1.2254171445965767 23.71184080839157 -7.769521996378899 8.679823502898216 -11.808906644582748 -2.5979345105588436 -7.439401745796204 24.40235137939453 -3.4409308433532715 8.636936992406845 -19.212138801813126 -6.557551771402359 5.90062715113163 0.45999733731150627 -5.44069804251194 1.8090011179447174 5.200114957988262 1.133531704545021 1.8614570796489716 6.125831454992294 -6.12881138920784 54.50870454311371 29.19890820980072 22.156653106212616 -26.59744441509247 -28.950447142124176 67.7450680732727 -12.427122294902802 -4.029092341661453 -3.6034338176250458 4.331014193594456 4.834450408816338 3.184128776192665 -5.691624730825424 4.6840596199035645 -2.287978269159794 1.6397852450609207 -8.734260946512222 4.26974281668663 4.4717902690172195 -0.5316191911697388 -1.4703601598739624 5.900010243058205 5.191577821969986 -6.264754459261894 -5.542188137769699 -2.1615560352802277 2.6946143992245197 3.737332709133625 3.2220806926488876 -1.2644550204277039 4.586891233921051 3.0476469174027443 -0.16211841255426407 6.648769676685333 1.5666863322257996 2.619543895125389 3.6088961362838745 -2.0754923298954964 4.186947047710419 1.0707318037748337 2.8563960269093513 -0.7697600405663252 -47.99474537372589 34.77273166179657 -40.84712237119675 29.860426783561707 -37.9086309671402 -72.82991409301758 4.046737588942051 -6.030298545956612 5.7981084287166595 -5.136078558862209 0.5419550836086273 -2.840045280754566 -0.5708847194910049 -3.0925631895661354 -4.234136492013931 0.9404401481151581 1.9095665216445923 -1.356167457997799 -3.8181305676698685 3.8343606144189835 -0.5657135881483555 3.830009065568447 12.481159418821335 -2.398463487625122 -6.488517075777054 -2.645195536315441 3.889218159019947 -0.7858130615204573 7.357662096619606 5.592024251818657 -16.03262409567833 -4.41579882055521 6.6791195422410965 1.450192630290985 -2.846769243478775 8.324617221951485 -6.1010632663965225 -0.5416546761989594 3.520434871315956 -7.166173160076141 4.352664649486542 1.818075031042099 -33.576305508613586 -36.29657506942749 -34.83873009681702 -1.1749312654137611 55.24295926094055 8.235412985086441 -14.117487967014313 -14.086995273828506 -3.234030269086361 5.736339166760445 -3.322952538728714 -1.7772045359015465 51.79847717285156 -36.47938907146454 42.61044144630432 15.014488399028778 59.24874722957611 -15.007456988096237 14.618440121412277 -3.4360136836767197 4.27605003118515
